<svg width="11" height="11" viewBox="0 0 11 11" fill="none" xmlns="http://www.w3.org/2000/svg">
<g clip-path="url(#clip0_298_1123)">
<path d="M2.99829 2.59135V3.34135C3.25005 3.34135 3.48501 3.21504 3.62388 3.00504L2.99829 2.59135ZM3.60062 1.68048L2.97503 1.26679V1.26679L3.60062 1.68048ZM6.67915 1.68048L7.30474 1.26679V1.26679L6.67915 1.68048ZM7.28148 2.59135L6.65589 3.00504C6.79476 3.21504 7.02972 3.34135 7.28148 3.34135V2.59135ZM5.67484 5.82999C5.67484 6.137 5.42959 6.37544 5.13989 6.37544V7.87544C6.2695 7.87544 7.17484 6.9539 7.17484 5.82999H5.67484ZM5.13989 6.37544C4.85018 6.37544 4.60493 6.137 4.60493 5.82999H3.10493C3.10493 6.9539 4.01027 7.87544 5.13989 7.87544V6.37544ZM4.60493 5.82999C4.60493 5.52298 4.85018 5.28453 5.13989 5.28453V3.78453C4.01027 3.78453 3.10493 4.70608 3.10493 5.82999H4.60493ZM5.13989 5.28453C5.42959 5.28453 5.67484 5.52298 5.67484 5.82999H7.17484C7.17484 4.70608 6.2695 3.78453 5.13989 3.78453V5.28453ZM3.62388 3.00504L4.22621 2.09416L2.97503 1.26679L2.37269 2.17767L3.62388 3.00504ZM4.31339 2.0459H5.96639V0.545898H4.31339V2.0459ZM6.05356 2.09416L6.65589 3.00504L7.90708 2.17767L7.30474 1.26679L6.05356 2.09416ZM5.96639 2.0459C5.99932 2.0459 6.0326 2.06246 6.05356 2.09416L7.30474 1.26679C7.00795 0.817969 6.50629 0.545898 5.96639 0.545898V2.0459ZM4.22621 2.09416C4.24718 2.06246 4.28045 2.0459 4.31339 2.0459V0.545898C3.77348 0.545898 3.27182 0.817969 2.97503 1.26679L4.22621 2.09416ZM8.67308 4.31863V7.34135H10.1731V4.31863H8.67308ZM7.7098 8.31862H2.56997V9.81862H7.7098V8.31862ZM1.60669 7.34135V4.31863H0.106689V7.34135H1.60669ZM2.56997 8.31862C2.0437 8.31862 1.60669 7.88685 1.60669 7.34135H0.106689C0.106689 8.70375 1.2038 9.81862 2.56997 9.81862V8.31862ZM8.67308 7.34135C8.67308 7.88685 8.23607 8.31862 7.7098 8.31862V9.81862C9.07598 9.81862 10.1731 8.70375 10.1731 7.34135H8.67308ZM7.7098 3.34135C8.23607 3.34135 8.67308 3.77313 8.67308 4.31863H10.1731C10.1731 2.95623 9.07598 1.84135 7.7098 1.84135V3.34135ZM2.56997 1.84135C1.2038 1.84135 0.106689 2.95623 0.106689 4.31863H1.60669C1.60669 3.77313 2.0437 3.34135 2.56997 3.34135V1.84135ZM2.56997 3.34135H2.99829V1.84135H2.56997V3.34135ZM7.7098 1.84135H7.28148V3.34135H7.7098V1.84135Z" fill="black"/>
<ellipse cx="5.13975" cy="2.591" rx="0.42832" ry="0.431818" fill="black"/>
</g>
<defs>
<clipPath id="clip0_298_1123">
<rect width="10.2797" height="10.3636" fill="white"/>
</clipPath>
</defs>
</svg>
