<svg width="24" height="22" viewBox="0 0 24 22" fill="none" xmlns="http://www.w3.org/2000/svg">
<path d="M5.832 17L5.832 9C5.832 6.79086 7.99536 5 10.664 5L17.912 5M5.832 17C5.832 19.2091 7.99536 21 10.664 21H13.4945C14.776 21 16.0051 20.5786 16.9113 19.8284L21.3287 16.1716C22.2349 15.4214 22.744 14.404 22.744 13.3431V9C22.744 6.79086 20.5806 5 17.912 5M5.832 17C3.16336 17 1 15.2091 1 13L1 5C1 2.79086 3.16336 1 5.832 1L13.08 1C15.7486 1 17.912 2.79086 17.912 5M15.496 21V19C15.496 16.7909 17.6594 15 20.328 15H22.744" stroke="#3D3C3C" stroke-width="1.5" stroke-linejoin="round"/>
</svg>
