<svg width="10" height="10" viewBox="0 0 10 10" fill="none" xmlns="http://www.w3.org/2000/svg">
<g clip-path="url(#clip0_298_1094)">
<path d="M5.27505 0.818359V2.45472C5.27505 3.35846 6.00174 4.09109 6.89816 4.09109L8.52126 4.09109M1.21729 2.45472L1.21729 7.36381C1.21729 8.26755 1.94397 9.00018 2.84039 9.00018H6.89816C7.79457 9.00018 8.52126 8.26755 8.52126 7.36381V4.76889C8.52126 4.3349 8.35026 3.91868 8.04587 3.61181L5.75045 1.29764C5.44606 0.990761 5.03321 0.818359 4.60274 0.818359L2.84039 0.818359C1.94397 0.81836 1.21729 1.55098 1.21729 2.45472Z" stroke="black" stroke-width="1.5" stroke-linejoin="round"/>
<path d="M2.39502 5.57684H3.03816C3.18319 5.57684 3.29375 5.58802 3.36983 5.6104C3.47207 5.64076 3.55965 5.69469 3.63256 5.77219C3.70547 5.8497 3.76095 5.94478 3.79899 6.05744C3.83703 6.1693 3.85605 6.30753 3.85605 6.47212C3.85605 6.61674 3.83822 6.74139 3.80256 6.84606C3.75897 6.9739 3.69675 7.07737 3.61592 7.15647C3.55489 7.2164 3.47247 7.26314 3.36865 7.2967C3.29098 7.32147 3.18716 7.33385 3.05718 7.33385H2.39502V5.57684ZM2.7469 5.87407V7.03782H3.00963C3.1079 7.03782 3.17883 7.03223 3.22242 7.02104C3.27949 7.00666 3.32664 6.98229 3.36389 6.94793C3.40193 6.91357 3.43284 6.85724 3.45662 6.77894C3.48039 6.69984 3.49228 6.59237 3.49228 6.45654C3.49228 6.32071 3.48039 6.21644 3.45662 6.14373C3.43284 6.07102 3.39955 6.01429 3.35676 5.97354C3.31396 5.93279 3.25967 5.90523 3.19389 5.89085C3.14476 5.87966 3.04846 5.87407 2.90501 5.87407H2.7469Z" fill="black"/>
<path d="M4.0843 6.46613C4.0843 6.28715 4.11085 6.13694 4.16395 6.01549C4.20358 5.926 4.25747 5.8457 4.32563 5.77459C4.39458 5.70348 4.46987 5.65075 4.5515 5.61639C4.66008 5.57005 4.7853 5.54688 4.92716 5.54688C5.18394 5.54688 5.38921 5.62718 5.54296 5.78778C5.6975 5.94838 5.77477 6.1717 5.77477 6.45774C5.77477 6.74139 5.69829 6.96351 5.54534 7.12411C5.39238 7.28391 5.1879 7.36381 4.93192 7.36381C4.67276 7.36381 4.4667 7.28431 4.31374 7.12531C4.16078 6.96551 4.0843 6.74578 4.0843 6.46613ZM4.44689 6.45415C4.44689 6.6531 4.49246 6.80411 4.5836 6.90718C4.67474 7.00945 4.79045 7.06059 4.93073 7.06059C5.071 7.06059 5.18592 7.00985 5.27548 6.90838C5.36583 6.80611 5.411 6.6531 5.411 6.44935C5.411 6.248 5.36702 6.09779 5.27904 5.99871C5.19187 5.89964 5.07576 5.8501 4.93073 5.8501C4.78569 5.8501 4.66879 5.90044 4.58003 6.00111C4.49127 6.10099 4.44689 6.252 4.44689 6.45415Z" fill="black"/>
<path d="M7.16567 6.68786L7.50685 6.79692C7.45455 6.98868 7.36737 7.1313 7.24532 7.22479C7.12406 7.31747 6.96991 7.36381 6.78287 7.36381C6.55146 7.36381 6.36125 7.28431 6.21225 7.12531C6.06326 6.96551 5.98876 6.74738 5.98876 6.47093C5.98876 6.17849 6.06365 5.95157 6.21344 5.79017C6.36323 5.62797 6.56017 5.54688 6.80427 5.54688C7.01746 5.54688 7.19063 5.6104 7.32378 5.73744C7.40303 5.81254 7.46247 5.92041 7.5021 6.06104L7.15378 6.14493C7.13317 6.05384 7.08998 5.98193 7.0242 5.9292C6.95921 5.87646 6.87996 5.8501 6.78644 5.8501C6.65726 5.8501 6.55225 5.89684 6.47141 5.99032C6.39136 6.08381 6.35134 6.23522 6.35134 6.44456C6.35134 6.66668 6.39097 6.82488 6.47022 6.91917C6.54947 7.01345 6.6525 7.06059 6.77931 7.06059C6.87283 7.06059 6.95327 7.03063 7.02063 6.9707C7.088 6.91078 7.13634 6.8165 7.16567 6.68786Z" fill="black"/>
</g>
<defs>
<clipPath id="clip0_298_1094">
<rect width="9.73864" height="9.81818" fill="white"/>
</clipPath>
</defs>
</svg>
