<svg width="11" height="11" viewBox="0 0 11 11" fill="none" xmlns="http://www.w3.org/2000/svg">
<g clip-path="url(#clip0_298_1072)">
<path d="M9.42308 6.0451L8.16425 5.13133C7.51012 4.65652 6.61617 4.70559 6.01705 5.2492L4.26272 6.84099C3.6636 7.38461 2.76965 7.43368 2.11552 6.95886L0.856689 6.0451M2.56997 9.49964H7.7098C8.65602 9.49964 9.42308 8.72632 9.42308 7.77237V2.59055C9.42308 1.63661 8.65602 0.863281 7.7098 0.863281H2.56997C1.62375 0.863281 0.856689 1.63661 0.856689 2.59055V7.77237C0.856689 8.72632 1.62375 9.49964 2.56997 9.49964ZM4.71157 3.6701C4.71157 4.26632 4.23215 4.74964 3.64077 4.74964C3.04938 4.74964 2.56997 4.26632 2.56997 3.6701C2.56997 3.07388 3.04938 2.59055 3.64077 2.59055C4.23215 2.59055 4.71157 3.07388 4.71157 3.6701Z" stroke="black" stroke-width="1.5" stroke-linecap="round"/>
</g>
<defs>
<clipPath id="clip0_298_1072">
<rect width="10.2797" height="10.3636" fill="white"/>
</clipPath>
</defs>
</svg>
